# AST/ASF file generated using VICON BodyLanguage
# -----------------------------------------------
:version 1.10
:name VICON
:units
  mass 1.0
  length 0.45
  angle deg
:documentation
   .ast/.asf automatically generated from VICON data using
   VICON BodyBuilder and BodyLanguage model FoxedUp or BRILLIANT.MOD
:root
   order TX TY TZ RX RY RZ
   axis XYZ
   position 0 0 0  
   orientation 0 0 0 
:bonedata
  begin
     id 1 
     name lhipjoint
     direction 0.54267 -0.795011 0.271047 
     length 2.39899 
     axis 0 0 0  XYZ
  end
  begin
     id 2 
     name lfemur
     direction 0.34202 -0.939693 0  
     length 7.49701  
     axis 0 0 20  XYZ
    dof rx ry rz
    limits (-160.0 20.0)
           (-70.0 70.0)
           (-60.0 70.0)
  end
  begin
     id 3 
     name ltibia
     direction 0.34202 -0.939693 0   
     length 8.1668   
     axis 0 0 20   XYZ
    dof rx
    limits (-10.0 170.0)
  end
  begin
     id 4 
     name lfoot
     direction 0.0736283 -0.202292 0.976554   
     length 2.13544   
     axis -90 7.62852e-016 20   XYZ
    dof rx rz
    limits (-45.0 90.0)
           (-70.0 20.0)
  end
  begin
     id 5 
     name ltoes
     direction 1.53557e-011 -4.22024e-011 1   
     length 1.07411   
     axis -90 7.62852e-016 20   XYZ
    dof rx
    limits (-90.0 20.0)
  end
  begin
     id 6 
     name rhipjoint
     direction -0.538061 -0.797813 0.272002   
     length 2.39057  
     axis 0 0 0  XYZ 
  end
  begin
     id 7 
     name rfemur
     direction -0.34202 -0.939693 0   
     length 7.50152   
     axis 0 0 -20   XYZ
    dof rx ry rz
    limits (-160.0 20.0)
           (-70.0 70.0)
           (-70.0 60.0)
  end
  begin
     id 8 
     name rtibia
     direction -0.34202 -0.939693 0   
     length 8.05793   
     axis 0 0 -20   XYZ
    dof rx
    limits (-10.0 170.0)
 end
 begin
     id 9 
     name rfoot
     direction -0.0765195 -0.210236 0.974652   
     length 2.28698  
     axis -90 -7.62852e-016 -20   XYZ
    dof rx rz
    limits (-45.0 90.0)
           (-20.0 70.0)
  end
  begin
     id 10 
     name rtoes
     direction -1.53542e-011 -4.21847e-011 1   
     length 1.14762   
     axis -90 -7.62852e-016 -20   XYZ
    dof rx
    limits (-90.0 20.0)
  end
  begin
     id 11 
     name lowerback
     direction -0.0217239 0.996592 -0.0795765   
     length 2.08176   
     axis 0 0 0   XYZ
    dof rx ry rz
    limits (-20.0 45.0)
           (-30.0 30.0)
           (-30.0 30.0)
  end
  begin
     id 12 
     name upperback
     direction -0.00563773 0.999651 -0.0258155   
     length 2.08898   
     axis 0 0 0   XYZ
    dof rx ry rz
    limits (-20.0 45.0)
           (-30.0 30.0)
           (-30.0 30.0)
  end
  begin
     id 13 
     name thorax
     direction 0.0032706 0.999923 0.0119599   
     length 2.0968   
     axis 0 0 0   XYZ
    dof rx ry rz
    limits (-20.0 45.0)
           (-30.0 30.0)
           (-30.0 30.0)
  end
  begin
     id 14 
     name lowerneck
     direction -0.0285886 0.99568 0.0883427   
     length 1.81272   
     axis 0 0 0   XYZ
    dof rx ry rz
    limits (-20.0 45.0)
           (-30.0 30.0)
           (-30.0 30.0)
  end
  begin
     id 15 
     name upperneck
     direction 0.0807535 0.97985 -0.18268   
     length 1.82518   
     axis 0 0 0   XYZ
    dof rx ry rz
    limits (-20.0 45.0)
           (-30.0 30.0)
           (-30.0 30.0)
  end
  begin
     id 16
     name head
     direction 0.0236605 0.997053 -0.0729767  
     length 1.84443  
     axis 0 0 0   XYZ
    dof rx ry rz
    limits (-20.0 45.0)
           (-30.0 30.0)
           (-30.0 30.0)
  end
  begin
     id 17 
     name lclavicle
     direction 0.918986 0.39378 -0.0200683  
     length 3.27822  
     axis 0 0 0   XYZ
    dof ry rz
    limits (-20.0 10.0)
           (0.0 20.0)
  end
  begin
     id 18 
     name lhumerus
     direction 1 -4.4897e-011 2.09544e-027   
     length 5.5568   
     axis 180 -30 -90   XYZ
    dof rx ry rz
    limits (-60.0 90.0)
           (-90.0 90.0)
           (-90.0 90.0)
  end
  begin
     id 19
     name lradius
     direction 1 -4.48957e-011 -1.27696e-026   
     length 3.63979   
     axis 180 -30 -90   XYZ
    dof rx
    limits (-10.0 170.0)
  end
  begin
     id 20
     name lwrist
     direction 1 -4.49001e-011 -1.49001e-026   
     length 1.8199   
     axis 9.0955e-015 90 90   XYZ
    dof ry
    limits (-180.0 0.0)
 end
  begin
     id 21 
     name lhand
     direction 1 -4.48709e-011 -2.9758e-026   
     length 0.569419   
     axis 1.90115e-014 90 90   XYZ
    dof rx rz
    limits (-90.0 90.0)
           (-45.0 45.0)
  end
  begin
     id 22 
     name lfingers
     direction 1 -4.49175e-011 -5.96505e-026   
     length 0.45908   
     axis 3.80223e-014 90 90   XYZ
    dof rx
    limits (0.0 90.0)
  end
  begin
     id 23
     name lthumb
     direction 0.707107 -6.34864e-011 0.707107   
     length 0.65915   
     axis -90 45 -3.84942e-014   XYZ
    dof rx rz
    limits (-45.0 45.0)
           (-45.0 45.0)
  end
  begin
     id 24 
     name rclavicle
     direction -0.911913 0.396426 -0.106115   
     length 3.46301  
     axis 0 0 0   XYZ 
    dof ry rz
    limits (-10.0 20.0)
           (-20.0 0.0)
  end
  begin
     id 25 
     name rhumerus
     direction -1 -4.48965e-011 7.78516e-028  
     length 5.34339   
     axis 180 30 90   XYZ
    dof rx ry rz
    limits (-90.0 60.0)
           (-90.0 90.0)
           (-90.0 90.0)
  end
  begin
     id 26 
     name rradius
     direction -1 -4.48948e-011 -5.79823e-027   
     length 3.65101   
     axis 180 30 90   XYZ
    dof rx
    limits (-10.0 170.0)
  end
  begin
     id 27 
     name rwrist
     direction -1 -4.48995e-011 -1.48996e-026   
     length 1.8255   
     axis 9.0955e-015 -90 -90   XYZ
    dof ry
    limits (-180.0 0.0)
  end
  begin
     id 28
     name rhand
     direction -1 -4.48957e-011 -2.97937e-026   
     length 0.694249   
     axis 1.90115e-014 -90 -90   XYZ
    dof rx rz
    limits (-90.0 90.0)
           (-45.0 45.0)
  end
  begin
     id 29
     name rfingers
     direction -1 -4.4898e-011 -5.95943e-026   
     length 0.559721   
     axis 3.80223e-014 -90 -90   XYZ
    dof rx
    limits (0.0 90.0)
  end
  begin
     id 30
     name rthumb
     direction -0.707107 -6.34969e-011 0.707107   
     length 0.803651   
     axis -90 -45 3.84942e-014   XYZ
    dof rx rz
    limits (-45.0 45.0)
           (-45.0 45.0)
  end
:hierarchy
  begin
    root lhipjoint rhipjoint lowerback
    lhipjoint lfemur
    lfemur ltibia
    ltibia lfoot
    lfoot ltoes
    rhipjoint rfemur
    rfemur rtibia
    rtibia rfoot
    rfoot rtoes
    lowerback upperback
    upperback thorax
    thorax lowerneck lclavicle rclavicle
    lowerneck upperneck
    upperneck head
    lclavicle lhumerus
    lhumerus lradius
    lradius lwrist
    lwrist lhand lthumb
    lhand lfingers
    rclavicle rhumerus
    rhumerus rradius
    rradius rwrist
    rwrist rhand rthumb
    rhand rfingers
  end

#!OML:ASF H:\Terrain\Walking\May29\JustinRory\rory.ASF
:FULLY-SPECIFIED
:DEGREES
276
root 9.4635 17.9994 -3.91416 -11.0639 40.5725 -15.27
lowerback 8.10922 4.85024 -4.96831
upperback 4.06718 6.12803 -3.7233
thorax -0.404263 3.06374 -1.59409
lowerneck -0.0273887 -16.2595 -14.4605
upperneck 24.2921 -26.2307 18.7377
head 12.7098 -11.9628 5.66908
rclavicle 3.73715e-014 -2.8625e-014
rhumerus 0.717735 -54.251 -47.3975
rradius 16.825
rwrist 19.2315
rhand -16.7764 17.7483
rfingers 7.12502
rthumb 9.45104 -12.0197
lclavicle 3.73715e-014 -2.8625e-014
lhumerus -45.443 0.198621 62.4634
lradius 59.4906
lwrist 2.7325
lhand -2.71946 21.2679
lfingers 7.12502
lthumb 22.9832 49.9177
rfemur -9.40651 -8.22159 24.2797
rtibia 29.5265
rfoot -10.3122 -21.2515
rtoes 1.59488
lfemur -35.705 7.61253 -20.2057
ltibia 49.4836
lfoot -13.0632 1.83945
ltoes -4.58497
277
root 9.50059 17.9971 -3.78343 -11.4786 40.0517 -16.4441
lowerback 7.62872 4.89588 -4.27329
upperback 3.84364 6.254 -3.55633
thorax -0.323545 3.13136 -1.77837
lowerneck 0.836504 -16.4255 -14.5455
upperneck 24.2377 -26.6655 19.2036
head 12.7186 -12.2006 5.84112
rclavicle -8.50798e-014 4.45278e-014
rhumerus 0.816336 -54.5657 -47.5213
rradius 16.5755
rwrist 19.635
rhand -16.4603 17.8763
rfingers 7.12502
rthumb 9.75608 -11.8777
lclavicle -8.50798e-014 4.45278e-014
lhumerus -46.1991 0.599791 62.1447
lradius 59.4324
lwrist 2.77763
lhand -3.01059 20.0066
lfingers 7.12502
lthumb 22.7038 48.691
rfemur -9.24183 -9.12757 25.5754
rtibia 29.5777
rfoot -10.9559 -20.4056
rtoes 1.21701
lfemur -35.8119 7.71287 -19.9225
ltibia 47.7838
lfoot -13.1359 0.875377
ltoes -5.84676
278
root 9.52912 17.9958 -3.63855 -11.9443 39.5368 -17.2307
lowerback 7.42135 4.99195 -4.02104
upperback 3.7655 6.40529 -3.40771
thorax -0.282084 3.20678 -1.76016
lowerneck 1.43671 -16.4941 -15.4573
upperneck 24.4617 -27.2376 20.5433
head 13.2599 -12.4739 6.41637
rclavicle -1.68569e-013 8.5875e-014
rhumerus 0.661709 -54.1591 -47.4913
rradius 16.5081
rwrist 19.2397
rhand -16.2285 17.7073
rfingers 7.12502
rthumb 9.97968 -12.0361
lclavicle -1.68569e-013 8.5875e-014
lhumerus -46.7456 1.14409 61.7469
lradius 59.1726
lwrist 2.63629
lhand -3.13661 20.0843
lfingers 7.12502
lthumb 22.5829 48.7834
rfemur -8.77195 -9.57824 26.5766
rtibia 29.4687
rfoot -11.1974 -20.095
rtoes 1.0594
lfemur -35.6157 7.9668 -19.8655
ltibia 46.0993
lfoot -13.1168 -0.0116065
ltoes -7.80208
279
root 9.5521 17.9847 -3.49452 -12.9578 38.8078 -18.5262
lowerback 7.4116 5.14603 -3.415
upperback 3.80729 6.65105 -3.09453
thorax -0.205182 3.33247 -1.78493
lowerneck 0.414734 -16.5577 -14.0281
upperneck 25.1621 -26.9887 18.9827
head 13.1412 -12.2401 5.60524
rclavicle -7.4743e-014 6.04305e-014
rhumerus 0.134331 -52.8641 -47.0977
rradius 16.6928
rwrist 17.8315
rhand -15.8718 17.3721
rfingers 7.12502
rthumb 10.3239 -12.3545
lclavicle -7.4743e-014 6.04305e-014
lhumerus -47.0107 1.90146 61.3732
lradius 58.6356
lwrist 2.50826
lhand -3.04143 22.1032
lfingers 7.12502
lthumb 22.6742 50.7912
rfemur -8.25235 -9.6827 27.9607
rtibia 29.3258
rfoot -11.012 -20.1376
rtoes 0.737566
lfemur -35.1355 8.27368 -19.2169
ltibia 44.3622
lfoot -13.2069 -0.580058
ltoes -7.99466
280
root 9.59563 17.9747 -3.35407 -13.5201 38.4228 -19.1653
lowerback 7.23487 5.22403 -3.17798
upperback 3.85264 6.78225 -2.94595
thorax -0.0522581 3.39829 -1.7512
lowerneck 0.0929113 -16.5597 -13.4878
upperneck 25.6049 -26.9414 18.5003
head 13.1984 -12.1624 5.34473
rclavicle -1.08934e-013 6.04305e-014
rhumerus -0.0725832 -52.3215 -46.8674
rradius 16.6036
rwrist 17.2929
rhand -15.5432 16.9395
rfingers 7.12502
rthumb 10.6408 -12.7711
lclavicle -1.08934e-013 6.04305e-014
lhumerus -47.5458 2.30255 60.9724
lradius 58.3165
lwrist 2.82797
lhand -4.41107 20.4312
lfingers 7.12502
lthumb 21.3592 49.2741
rfemur -7.70904 -10.3201 28.4854
rtibia 29.2845
rfoot -11.4794 -19.4596
rtoes 1.46544
lfemur -34.4233 8.28355 -19.2549
ltibia 42.4832
lfoot -13.6455 -0.954785
ltoes -5.51802
281
root 9.65377 17.9736 -3.21149 -13.2117 38.4345 -18.5274
lowerback 6.86453 5.32441 -3.8402
upperback 3.9462 6.90444 -3.11615
thorax 0.195906 3.44935 -1.53202
lowerneck 0.111672 -16.609 -13.4198
upperneck 25.8016 -27.0858 18.579
head 13.3175 -12.2056 5.34142
rclavicle 1.30403e-013 -2.8625e-014
rhumerus -0.432635 -52.3006 -46.6184
rradius 16.4959
rwrist 17.2102
rhand -15.6331 16.5869
rfingers 7.12502
rthumb 10.5541 -13.1281
lclavicle 1.30403e-013 -2.8625e-014
lhumerus -48.1038 2.35132 60.6187
lradius 58.1813
lwrist 3.32576
lhand -5.76455 21.5937
lfingers 7.12502
lthumb 20.0587 50.5783
rfemur -7.10791 -11.4012 27.7626
rtibia 29.5114
rfoot -12.291 -18.1378
rtoes 2.4452
lfemur -33.5924 8.03314 -20.4674
ltibia 40.5058
lfoot -13.9217 -1.10397
ltoes -4.86509
